mtllib model_0.mtl
o model_0
v -1.4230839014053345 -1.6908999681472778 0.2132968008518219 
v -1.3297806978225708 -1.6908999681472778 0.2132968008518219 
v -1.5594501495361328 -1.6908999681472778 0.7452769875526428 
v -1.243654727935791 -1.6908999681472778 0.2497338056564331 
v -1.731702208518982 -1.6908999681472778 0.41734400391578674 
v -1.6886392831802368 -1.6908999681472778 0.3371826112270355 
v -1.7388794422149658 -1.6908999681472778 0.512080192565918 
v -1.6168675422668457 -1.6908999681472778 0.2788833975791931 
v -1.7173479795455933 -1.6908999681472778 0.6141037940979004 
v -1.523564338684082 -1.6908999681472778 0.2424463927745819 
v -1.6527533531188965 -1.6908999681472778 0.6942651867866516 
v -1.451792597770691 -1.6908999681472778 0.7744265794754028 
v -1.344135046005249 -1.6908999681472778 0.7598518133163452 
v -1.1790602207183838 -1.6908999681472778 0.3298951983451843 
v -1.2508318424224854 -1.6908999681472778 0.7161273956298828 
v -1.1503515243530273 -1.6908999681472778 0.42463138699531555 
v -1.1790602207183838 -1.6908999681472778 0.6359660029411316 
v -1.1431742906570435 -1.6908999681472778 0.5339424014091492 
v -1.2723634243011475 -0.9171004295349121 0.8764501810073853 
v -1.4374382495880127 -0.9171004295349121 0.9055997729301453 
v -1.451792597770691 -1.6908999681472778 0.7744265794754028 
v -1.5594501495361328 -1.6908999681472778 0.7452769875526428 
v -1.5953360795974731 -0.9171004295349121 0.8764501810073853 
v -1.6527533531188965 -1.6908999681472778 0.6942651867866516 
v -1.731702208518982 -0.9171004295349121 0.796288788318634 
v -1.7173479795455933 -1.6908999681472778 0.6141037940979004 
v -1.8321826457977295 -0.9171004295349121 0.6724029779434204 
v -1.7388794422149658 -1.6908999681472778 0.512080192565918 
v -1.8896000385284424 -0.9171004295349121 0.5266550183296204 
v -1.731702208518982 -1.6908999681472778 0.41734400391578674 
v -1.8896000385284424 -0.9171004295349121 0.35904479026794434 
v -1.6886392831802368 -1.6908999681472778 0.3371826112270355 
v -1.8321826457977295 -0.9171004295349121 0.2132968008518219 
v -1.6168675422668457 -1.6908999681472778 0.2788833975791931 
v -1.731702208518982 -0.9171004295349121 0.08941099792718887 
v -1.523564338684082 -1.6908999681472778 0.2424463927745819 
v -1.5953360795974731 -0.9171004295349121 0.009249599650502205 
v -1.4230839014053345 -1.6908999681472778 0.2132968008518219 
v -1.4374382495880127 -0.9171004295349121 -0.019899999722838402 
v -1.3297806978225708 -1.6908999681472778 0.2132968008518219 
v -1.2723634243011475 -0.9171004295349121 0.009249599650502205 
v -1.243654727935791 -1.6908999681472778 0.2497338056564331 
v -1.1359971761703491 -0.9171004295349121 0.08941099792718887 
v -1.1790602207183838 -1.6908999681472778 0.3298951983451843 
v -1.0355167388916016 -0.9171004295349121 0.2132968008518219 
v -1.1503515243530273 -1.6908999681472778 0.42463138699531555 
v -0.9780994057655334 -0.9171004295349121 0.35904479026794434 
v -1.344135046005249 -1.6908999681472778 0.7598518133163452 
v -1.1359971761703491 -0.9171004295349121 0.796288788318634 
v -1.2508318424224854 -1.6908999681472778 0.7161273956298828 
v -1.0355167388916016 -0.9171004295349121 0.6724029779434204 
v -1.1790602207183838 -1.6908999681472778 0.6359660029411316 
v -0.9780994057655334 -0.9171004295349121 0.5266550183296204 
v -1.1431742906570435 -1.6908999681472778 0.5339424014091492 
v -0.9780994057655334 -0.9171004295349121 0.35904479026794434 
v -1.1503515243530273 -1.6908999681472778 0.42463138699531555 
vn 3.097898456858039e-13 -0.999997615814209 0.002184694167226553 
vn 3.097898456858039e-13 -0.999997615814209 0.002184694167226553 
vn 3.097898456858039e-13 -0.999997615814209 0.002184694167226553 
vn 3.097898456858039e-13 -0.999997615814209 0.002184694167226553 
vn 3.097898456858039e-13 -0.999997615814209 0.002184694167226553 
vn 3.097898456858039e-13 -0.999997615814209 0.002184694167226553 
vn 3.097898456858039e-13 -0.999997615814209 0.002184694167226553 
vn 3.097898456858039e-13 -0.999997615814209 0.002184694167226553 
vn 3.097898456858039e-13 -0.999997615814209 0.002184694167226553 
vn 3.097898456858039e-13 -0.999997615814209 0.002184694167226553 
vn 3.097898456858039e-13 -0.999997615814209 0.002184694167226553 
vn 3.097898456858039e-13 -0.999997615814209 0.002184694167226553 
vn 3.097898456858039e-13 -0.999997615814209 0.002184694167226553 
vn 3.097898456858039e-13 -0.999997615814209 0.002184694167226553 
vn 3.097898456858039e-13 -0.999997615814209 0.002184694167226553 
vn 3.097898456858039e-13 -0.999997615814209 0.002184694167226553 
vn 3.097898456858039e-13 -0.999997615814209 0.002184694167226553 
vn 3.097898456858039e-13 -0.999997615814209 0.002184694167226553 
vn 0.3088777959346771 -0.16603124141693115 0.9364978075027466 
vn -0.018720917403697968 -0.16854624450206757 0.9855159521102905 
vn -0.026157958433032036 -0.16755318641662598 0.9855159521102905 
vn -0.34477272629737854 -0.16722677648067474 0.9236704111099243 
vn -0.34477272629737854 -0.16722677648067474 0.9236704111099243 
vn -0.6418148279190063 -0.16774708032608032 0.7482877969741821 
vn -0.6418148279190063 -0.16774708032608032 0.7482877969741821 
vn -0.8645673990249634 -0.17245405912399292 0.4719987213611603 
vn -0.8645673990249634 -0.17245405912399292 0.4719987213611603 
vn -0.9720014929771423 -0.18757088482379913 0.1415284425020218 
vn -0.9719218015670776 -0.19116397202014923 0.1372016966342926 
vn -0.955773651599884 -0.2098482996225357 -0.2060592919588089 
vn -0.9556333422660828 -0.20621585845947266 -0.2103329300880432 
vn -0.8097531795501709 -0.2384808361530304 -0.5361219048500061 
vn -0.8073034882545471 -0.23847748339176178 -0.5398051738739014 
vn -0.5711795687675476 -0.2738681137561798 -0.7737894654273987 
vn -0.5690580010414124 -0.270450234413147 -0.7765498161315918 
vn -0.3118762969970703 -0.29183429479599 -0.9041935205459595 
vn -0.3118762969970703 -0.29183429479599 -0.9041935205459595 
vn -0.047106705605983734 -0.28895166516304016 -0.9561840295791626 
vn -0.03962044417858124 -0.2900729775428772 -0.9561840295791626 
vn 0.28040239214897156 -0.2670467495918274 -0.9219872951507568 
vn 0.28040239214897156 -0.2670467495918274 -0.9219872951507568 
vn 0.6071740984916687 -0.2504771053791046 -0.7540562748908997 
vn 0.6035823822021484 -0.25052356719970703 -0.7569189071655273 
vn 0.8441926836967468 -0.23141494393348694 -0.4835140109062195 
vn 0.8399419784545898 -0.23875300586223602 -0.48733407258987427 
vn 0.9607169032096863 -0.22453270852565765 -0.16312000155448914 
vn 0.9592293500900269 -0.22446832060813904 -0.17173540592193604 
vn 0.2996782660484314 -0.16577984392642975 0.9395264387130737 
vn 0.6237582564353943 -0.17136408388614655 0.762600839138031 
vn 0.6133792996406555 -0.1711803525686264 0.7710143327713013 
vn 0.855094850063324 -0.187155082821846 0.4835140109062195 
vn 0.8507125973701477 -0.18725600838661194 0.4911448359489441 
vn 0.9647828936576843 -0.20970013737678528 0.15880759060382843 
vn 0.9633353352546692 -0.2096485197544098 0.16742929816246033 
vn 0.9592293500900269 -0.22446832060813904 -0.17173540592193604 
vn 0.9607169032096863 -0.22453270852565765 -0.16312000155448914 
vt 0.16687890887260437 0.2759690582752228 
vt 0.11188774555921555 0.28569379448890686 
vt 0.2218700647354126 0.5878751873970032 
vt 0.06359115988016129 0.31358087062835693 
vt 0.3251578211784363 0.40889742970466614 
vt 0.30614998936653137 0.35641252994537354 
vt 0.3251578211784363 0.4646715521812439 
vt 0.27016663551330566 0.31358087062835693 
vt 0.30614998936653137 0.5172279477119446 
vt 0.2218700647354126 0.28569379448890686 
vt 0.27016663551330566 0.559916615486145 
vt 0.16687890887260437 0.5975999236106873 
vt 0.11188774555921555 0.5878751873970032 
vt 0.027727359905838966 0.35641252994537354 
vt 0.06359115988016129 0.559916615486145 
vt 0.00860000029206276 0.40889742970466614 
vt 0.027727359905838966 0.5172279477119446 
vt 0.00860000029206276 0.4646715521812439 
vt 0.7709448337554932 0.2706061899662018 
vt 0.7166709303855896 0.2706061899662018 
vt 0.7166709303855896 0.011900000274181366 
vt 0.6625165939331055 0.011900000274181366 
vt 0.6625165939331055 0.2706061899662018 
vt 0.6082427501678467 0.011900000274181366 
vt 0.6082427501678467 0.2706061899662018 
vt 0.5540884137153625 0.011900000274181366 
vt 0.5540884137153625 0.2706061899662018 
vt 0.49993404746055603 0.011900000274181366 
vt 0.49993404746055603 0.2706061899662018 
vt 0.44566017389297485 0.011900000274181366 
vt 0.44566017389297485 0.2706061899662018 
vt 0.3915058374404907 0.011900000274181366 
vt 0.3915058374404907 0.2706061899662018 
vt 0.3373515009880066 0.011900000274181366 
vt 0.3373515009880066 0.2706061899662018 
vt 0.2830776274204254 0.011900000274181366 
vt 0.2830776274204254 0.2706061899662018 
vt 0.2289232760667801 0.011900000274181366 
vt 0.2289232760667801 0.2706061899662018 
vt 0.17464938759803772 0.011900000274181366 
vt 0.17464938759803772 0.2706061899662018 
vt 0.12049505859613419 0.011900000274181366 
vt 0.12049505859613419 0.2706061899662018 
vt 0.06634071469306946 0.011900000274181366 
vt 0.06634071469306946 0.2706061899662018 
vt 0.012066833674907684 0.011900000274181366 
vt 0.012066833674907684 0.2706061899662018 
vt 0.7709448337554932 0.011900000274181366 
vt 0.8252187371253967 0.2706061899662018 
vt 0.8252187371253967 0.011900000274181366 
vt 0.8793730735778809 0.2706061899662018 
vt 0.8793730735778809 0.011900000274181366 
vt 0.9336469769477844 0.2706061899662018 
vt 0.9336469769477844 0.011900000274181366 
vt 0.9878013134002686 0.2706061899662018 
vt 0.9878013134002686 0.011900000274181366 
s on 
f 1/1/1 2/2/2 3/3/3 
f 2/2/2 4/4/4 3/3/3 
f 3/3/3 4/4/4 4/4/4 
f 4/4/4 5/5/5 4/4/4 
f 4/4/4 5/5/5 5/5/5 
f 5/5/5 6/6/6 5/5/5 
f 5/5/5 6/6/6 7/7/7 
f 6/6/6 8/8/8 7/7/7 
f 7/7/7 8/8/8 9/9/9 
f 8/8/8 10/10/10 9/9/9 
f 9/9/9 10/10/10 11/11/11 
f 10/10/10 1/1/1 11/11/11 
f 11/11/11 1/1/1 3/3/3 
f 1/1/1 3/3/3 3/3/3 
f 3/3/3 3/3/3 3/3/3 
f 3/3/3 3/3/3 3/3/3 
f 3/3/3 3/3/3 12/12/12 
f 3/3/3 4/4/4 12/12/12 
f 12/12/12 4/4/4 13/13/13 
f 4/4/4 14/14/14 13/13/13 
f 13/13/13 14/14/14 15/15/15 
f 14/14/14 16/16/16 15/15/15 
f 15/15/15 16/16/16 17/17/17 
f 16/16/16 18/18/18 17/17/17 
f 17/17/17 18/18/18 18/18/18 
f 18/18/18 19/19/19 18/18/18 
f 18/18/18 19/19/19 19/19/19 
f 19/19/19 20/20/20 19/19/19 
f 19/19/19 20/20/20 21/21/21 
f 20/20/20 20/20/20 21/21/21 
f 21/21/21 20/20/20 22/22/22 
f 20/20/20 23/23/23 22/22/22 
f 22/22/22 23/23/23 24/24/24 
f 23/23/23 25/25/25 24/24/24 
f 24/24/24 25/25/25 26/26/26 
f 25/25/25 27/27/27 26/26/26 
f 26/26/26 27/27/27 28/28/28 
f 27/27/27 29/29/29 28/28/28 
f 28/28/28 29/29/29 30/30/30 
f 29/29/29 31/31/31 30/30/30 
f 30/30/30 31/31/31 32/32/32 
f 31/31/31 33/33/33 32/32/32 
f 32/32/32 33/33/33 34/34/34 
f 33/33/33 35/35/35 34/34/34 
f 34/34/34 35/35/35 36/36/36 
f 35/35/35 37/37/37 36/36/36 
f 36/36/36 37/37/37 38/38/38 
f 37/37/37 39/39/39 38/38/38 
f 38/38/38 39/39/39 40/40/40 
f 39/39/39 41/41/41 40/40/40 
f 40/40/40 41/41/41 42/42/42 
f 41/41/41 43/43/43 42/42/42 
f 42/42/42 43/43/43 44/44/44 
f 43/43/43 45/45/45 44/44/44 
f 44/44/44 45/45/45 46/46/46 
f 45/45/45 47/47/47 46/46/46 
f 46/46/46 47/47/47 47/47/47 
f 47/47/47 21/21/21 47/47/47 
f 47/47/47 21/21/21 21/21/21 
f 21/21/21 48/48/48 21/21/21 
f 21/21/21 48/48/48 19/19/19 
f 48/48/48 48/48/48 19/19/19 
f 19/19/19 48/48/48 49/49/49 
f 48/48/48 50/50/50 49/49/49 
f 49/49/49 50/50/50 51/51/51 
f 50/50/50 52/52/52 51/51/51 
f 51/51/51 52/52/52 53/53/53 
f 52/52/52 54/54/54 53/53/53 
f 53/53/53 54/54/54 55/55/55 
f 54/54/54 56/56/56 55/55/55 

