mtllib model_1.mtl
o model_1
v -22.858488082885742 23.655742645263672 84.3836898803711 
v 22.85784339904785 23.655742645263672 84.3836898803711 
v -22.858488082885742 1.846891164779663 84.3836898803711 
v 22.85784339904785 1.846891164779663 84.3836898803711 
v -22.10418128967285 22.162750244140625 83.34989166259766 
v -22.10418128967285 3.5631349086761475 83.34989166259766 
v -22.10418128967285 22.162750244140625 5.68548583984375 
v -22.10418128967285 3.5631349086761475 5.68548583984375 
v 22.56151008605957 1.6096868515014648 32.65049743652344 
v 22.56151008605957 18.144227981567383 32.65049743652344 
v -22.562152862548828 1.6096868515014648 32.65049743652344 
v -22.562152862548828 18.144227981567383 32.65049743652344 
v 22.56151008605957 18.31166648864746 32.52127456665039 
v -22.562152862548828 18.31166648864746 32.52127456665039 
v 22.56151008605957 18.31166648864746 31.185945510864258 
v -22.562152862548828 18.31166648864746 31.185945510864258 
v 22.56151008605957 18.116321563720703 31.056718826293945 
v -22.562152862548828 18.116321563720703 31.056718826293945 
v 22.56151008605957 0.8701671957969666 31.056718826293945 
v -22.562152862548828 0.8701671957969666 31.056718826293945 
v -24.85201072692871 -0.19027599692344666 86.49437713623047 
v -23.370338439941406 0.45157119631767273 86.49437713623047 
v 24.851367950439453 -0.19027599692344666 86.49437713623047 
v 23.369693756103516 0.45157119631767273 86.49437713623047 
v 25.174640655517578 -0.19027599692344666 87.09742736816406 
v 25.174640655517578 -0.19027599692344666 87.8727798461914 
v 24.851367950439453 -0.19027599692344666 87.05435180664062 
v -25.17528533935547 -0.19027599692344666 87.8727798461914 
v -25.17528533935547 -0.19027599692344666 87.09742736816406 
v -24.85201072692871 -0.19027599692344666 87.05435180664062 
v -24.85201072692871 -0.19027599692344666 86.49437713623047 
v 24.851367950439453 -0.19027599692344666 86.49437713623047 
v 27.006526947021484 -0.19027599692344666 91.40493774414062 
v 27.006526947021484 28.00914192199707 91.40493774414062 
v -27.007169723510742 -0.19027599692344666 91.40493774414062 
v -27.007169723510742 28.00914192199707 91.40493774414062 
v -26.63001823425293 28.371923446655273 91.40493774414062 
v 26.62937355041504 28.371923446655273 91.40493774414062 
v -18.79062271118164 23.572023391723633 5.383960247039795 
v -2.8693785667419434 23.572023391723633 5.383960247039795 
v -18.79062271118164 23.572023391723633 16.49733543395996 
v -2.8693785667419434 23.572023391723633 16.49733543395996 
v 22.103538513183594 22.162750244140625 83.34989166259766 
v 22.103538513183594 22.162750244140625 5.68548583984375 
v 22.103538513183594 3.5631349086761475 83.34989166259766 
v 22.103538513183594 3.5631349086761475 5.68548583984375 
v -18.79062271118164 23.572023391723633 70.72888946533203 
v -2.8693785667419434 23.572023391723633 70.72888946533203 
v -18.79062271118164 23.572023391723633 81.88533782958984 
v -2.8693785667419434 23.572023391723633 81.88533782958984 
v 22.130477905273438 0.42366480827331543 83.99601745605469 
v -22.131120681762695 0.42366480827331543 83.99601745605469 
v 22.130477905273438 0.42366480827331543 5.383960247039795 
v -22.131120681762695 0.42366480827331543 5.383960247039795 
v 18.574462890625 23.572023391723633 16.49733543395996 
v 2.653218984603882 23.572023391723633 16.49733543395996 
v 18.574462890625 23.572023391723633 5.383960247039795 
v 2.653218984603882 23.572023391723633 5.383960247039795 
v 18.574462890625 23.572023391723633 60.13241195678711 
v 2.653218984603882 23.572023391723633 60.13241195678711 
v 18.574462890625 23.572023391723633 29.161415100097656 
v 2.653218984603882 23.572023391723633 29.161415100097656 
v 18.574462890625 23.572023391723633 81.88533782958984 
v 2.653218984603882 23.572023391723633 81.88533782958984 
v 18.574462890625 23.572023391723633 70.72888946533203 
v 2.653218984603882 23.572023391723633 70.72888946533203 
v 22.130477905273438 1.9166572093963623 3.2302050590515137 
v -22.131120681762695 1.9166572093963623 3.2302050590515137 
v 22.130477905273438 23.61388397216797 3.2302050590515137 
v -22.131120681762695 23.61388397216797 3.2302050590515137 
v -18.79062271118164 23.572023391723633 29.161415100097656 
v -2.8693785667419434 23.572023391723633 29.161415100097656 
v -18.79062271118164 23.572023391723633 60.13241195678711 
v -2.8693785667419434 23.572023391723633 60.13241195678711 
v -22.131120681762695 1.9166572093963623 5.125509262084961 
v 22.130477905273438 1.9166572093963623 5.125509262084961 
v -22.131120681762695 23.61388397216797 5.125509262084961 
v 22.130477905273438 23.61388397216797 5.125509262084961 
v 25.282398223876953 -0.19027599692344666 88.34660339355469 
v -25.283042907714844 -0.19027599692344666 88.34660339355469 
v 25.74036979675293 -0.19027599692344666 88.99272918701172 
v -25.74101448059082 -0.19027599692344666 88.99272918701172 
v -26.198986053466797 -0.19027599692344666 89.466552734375 
v 26.198341369628906 -0.19027599692344666 89.466552734375 
v 26.97958755493164 -0.19027599692344666 90.02653503417969 
v -26.9802303314209 -0.19027599692344666 90.02653503417969 
v 26.97958755493164 -0.19027599692344666 90.5434341430664 
v -26.9802303314209 -0.19027599692344666 90.5434341430664 
v -27.007169723510742 -0.19027599692344666 91.40493774414062 
v -27.572900772094727 -0.19027599692344666 90.67266082763672 
v -27.572900772094727 -0.19027599692344666 91.40493774414062 
v 27.006526947021484 -0.19027599692344666 91.40493774414062 
v 27.572256088256836 -0.19027599692344666 91.40493774414062 
v -22.131120681762695 1.8329379558563232 83.99601745605469 
v 22.130477905273438 1.8329379558563232 83.99601745605469 
v -22.131120681762695 1.8329379558563232 5.383960247039795 
v 22.130477905273438 1.8329379558563232 5.383960247039795 
v 22.56151008605957 1.6096868515014648 62.58769226074219 
v 22.56151008605957 18.144227981567383 62.58769226074219 
v -22.562152862548828 1.6096868515014648 62.58769226074219 
v -22.562152862548828 18.144227981567383 62.58769226074219 
v 22.56151008605957 18.31166648864746 62.4153938293457 
v -22.562152862548828 18.31166648864746 62.4153938293457 
v 22.56151008605957 18.31166648864746 61.123138427734375 
v -22.562152862548828 18.31166648864746 61.123138427734375 
v 22.56151008605957 18.116321563720703 60.95083999633789 
v -22.562152862548828 18.116321563720703 60.95083999633789 
v 22.56151008605957 0.8701671957969666 60.95083999633789 
v -22.562152862548828 0.8701671957969666 60.95083999633789 
v 27.572256088256836 -0.19027599692344666 90.67266082763672 
vn -2.0682311115474694e-13 0 -1 
vn -2.0682311115474694e-13 0 -1 
vn -2.0682311115474694e-13 0 -1 
vn -2.0682311115474694e-13 0 -1 
vn 0.999997615814209 0 0.002184694167226553 
vn 0.999997615814209 0 0.002184694167226553 
vn 0.999997615814209 0 0.002184694167226553 
vn 0.999997615814209 0 0.002184694167226553 
vn 0 0 1 
vn 0 0 1 
vn 0 0 1 
vn 0 0 1 
vn -1.0341130485562108e-13 0.999997615814209 0.002184694167226553 
vn -1.0341130485562108e-13 0.999997615814209 0.002184694167226553 
vn -1.0341130485562108e-13 0.999997615814209 0.002184694167226553 
vn -1.0341130485562108e-13 0.999997615814209 0.002184694167226553 
vn -2.0682311115474694e-13 0 -1 
vn -2.0682311115474694e-13 0 -1 
vn -2.0682311115474694e-13 0 -1 
vn -2.0682311115474694e-13 0 -1 
vn -2.0682311115474694e-13 0 -1 
vn -2.0682311115474694e-13 0 -1 
vn -2.0682311115474694e-13 0 -1 
vn -2.0682311115474694e-13 0 -1 
vn 3.097898456858039e-13 -0.999997615814209 0.002184694167226553 
vn 3.097898456858039e-13 -0.999997615814209 0.002184694167226553 
vn 3.097898456858039e-13 -0.999997615814209 0.002184694167226553 
vn 3.097898456858039e-13 -0.999997615814209 0.002184694167226553 
vn 3.097898456858039e-13 -0.999997615814209 0.002184694167226553 
vn 3.097898456858039e-13 -0.999997615814209 0.002184694167226553 
vn 3.097898456858039e-13 -0.999997615814209 0.002184694167226553 
vn 3.097898456858039e-13 -0.999997615814209 0.002184694167226553 
vn 0 0 1 
vn 0 0 1 
vn 0 0 1 
vn 0 0 1 
vn 0 0 1 
vn 0 0 1 
vn 3.097898456858039e-13 -0.999997615814209 0.002184694167226553 
vn 3.097898456858039e-13 -0.999997615814209 0.002184694167226553 
vn 3.097898456858039e-13 -0.999997615814209 0.002184694167226553 
vn 3.097898456858039e-13 -0.999997615814209 0.002184694167226553 
vn -0.999997615814209 -2.0682260971124217e-13 0.002184694167226553 
vn -0.999997615814209 -2.0682260971124217e-13 0.002184694167226553 
vn -0.999997615814209 -2.0682260971124217e-13 0.002184694167226553 
vn -0.999997615814209 -2.0682260971124217e-13 0.002184694167226553 
vn 3.097898456858039e-13 -0.999997615814209 0.002184694167226553 
vn 3.097898456858039e-13 -0.999997615814209 0.002184694167226553 
vn 3.097898456858039e-13 -0.999997615814209 0.002184694167226553 
vn 3.097898456858039e-13 -0.999997615814209 0.002184694167226553 
vn 3.097898456858039e-13 -0.999997615814209 0.002184694167226553 
vn 3.097898456858039e-13 -0.999997615814209 0.002184694167226553 
vn 3.097898456858039e-13 -0.999997615814209 0.002184694167226553 
vn 3.097898456858039e-13 -0.999997615814209 0.002184694167226553 
vn 3.097898456858039e-13 -0.999997615814209 0.002184694167226553 
vn 3.097898456858039e-13 -0.999997615814209 0.002184694167226553 
vn 3.097898456858039e-13 -0.999997615814209 0.002184694167226553 
vn 3.097898456858039e-13 -0.999997615814209 0.002184694167226553 
vn 3.097898456858039e-13 -0.999997615814209 0.002184694167226553 
vn 3.097898456858039e-13 -0.999997615814209 0.002184694167226553 
vn 3.097898456858039e-13 -0.999997615814209 0.002184694167226553 
vn 3.097898456858039e-13 -0.999997615814209 0.002184694167226553 
vn 3.097898456858039e-13 -0.999997615814209 0.002184694167226553 
vn 3.097898456858039e-13 -0.999997615814209 0.002184694167226553 
vn 3.097898456858039e-13 -0.999997615814209 0.002184694167226553 
vn 3.097898456858039e-13 -0.999997615814209 0.002184694167226553 
vn -2.0682311115474694e-13 0 -1 
vn -2.0682311115474694e-13 0 -1 
vn -2.0682311115474694e-13 0 -1 
vn -2.0682311115474694e-13 0 -1 
vn 3.097898456858039e-13 -0.999997615814209 0.002184694167226553 
vn 3.097898456858039e-13 -0.999997615814209 0.002184694167226553 
vn 3.097898456858039e-13 -0.999997615814209 0.002184694167226553 
vn 3.097898456858039e-13 -0.999997615814209 0.002184694167226553 
vn 0 0 1 
vn 0 0 1 
vn 0 0 1 
vn 0 0 1 
vn 3.097898456858039e-13 -0.999997615814209 0.002184694167226553 
vn 3.097898456858039e-13 -0.999997615814209 0.002184694167226553 
vn 3.097898456858039e-13 -0.999997615814209 0.002184694167226553 
vn 3.097898456858039e-13 -0.999997615814209 0.002184694167226553 
vn 3.097898456858039e-13 -0.999997615814209 0.002184694167226553 
vn 3.097898456858039e-13 -0.999997615814209 0.002184694167226553 
vn 3.097898456858039e-13 -0.999997615814209 0.002184694167226553 
vn 3.097898456858039e-13 -0.999997615814209 0.002184694167226553 
vn 3.097898456858039e-13 -0.999997615814209 0.002184694167226553 
vn 3.097898456858039e-13 -0.999997615814209 0.002184694167226553 
vn 3.097898456858039e-13 -0.999997615814209 0.002184694167226553 
vn 3.097898456858039e-13 -0.999997615814209 0.002184694167226553 
vn 3.097898456858039e-13 -0.999997615814209 0.002184694167226553 
vn 3.097898456858039e-13 -0.999997615814209 0.002184694167226553 
vn 3.097898456858039e-13 -0.999997615814209 0.002184694167226553 
vn -1.0341130485562108e-13 0.999997615814209 0.002184694167226553 
vn -1.0341130485562108e-13 0.999997615814209 0.002184694167226553 
vn -1.0341130485562108e-13 0.999997615814209 0.002184694167226553 
vn -1.0341130485562108e-13 0.999997615814209 0.002184694167226553 
vn 0 0 1 
vn 0 0 1 
vn 0 0 1 
vn 0 0 1 
vn -1.0341130485562108e-13 0.999997615814209 0.002184694167226553 
vn -1.0341130485562108e-13 0.999997615814209 0.002184694167226553 
vn -1.0341130485562108e-13 0.999997615814209 0.002184694167226553 
vn -1.0341130485562108e-13 0.999997615814209 0.002184694167226553 
vn -2.0682311115474694e-13 0 -1 
vn -2.0682311115474694e-13 0 -1 
vn -2.0682311115474694e-13 0 -1 
vn -2.0682311115474694e-13 0 -1 
vn 3.097898456858039e-13 -0.999997615814209 0.002184694167226553 
vt 0.1926657259464264 0.38292065262794495 
vt 1.241977572441101 0.38292065262794495 
vt 0.1926657259464264 0.8836194276809692 
vt 1.241977572441101 0.8836194276809692 
vt 0.03698423504829407 0.6792216300964355 
vt 0.03698423504829407 0.2523247301578522 
vt 1.8194596767425537 0.6792216300964355 
vt 1.8194596767425537 0.2523247301578522 
vt 0.36978837847709656 0.9865776300430298 
vt 0.36978837847709656 0.6067560315132141 
vt 1.4062976837158203 0.9865776300430298 
vt 1.4062976837158203 0.6067560315132141 
vt 0.36978837847709656 0.6029900312423706 
vt 1.4062976837158203 0.6029900312423706 
vt 0.36978837847709656 0.5731655359268188 
vt 1.4062976837158203 0.5731655359268188 
vt 0.36978837847709656 0.5687921047210693 
vt 1.4062976837158203 0.5687921047210693 
vt 0.36978837847709656 0.17257007956504822 
vt 1.4062976837158203 0.17257007956504822 
vt 1.2691364288330078 1.0511467456817627 
vt 1.2356384992599487 1.0659071207046509 
vt 0.1287151277065277 1.0511467456817627 
vt 0.1622130572795868 1.0659071207046509 
vt 0.12119518220424652 1.0365078449249268 
vt 0.12119518220424652 1.0188318490982056 
vt 0.1287151277065277 1.0380263328552246 
vt 1.2766563892364502 1.0188318490982056 
vt 1.2766563892364502 1.0365078449249268 
vt 1.2691364288330078 1.0380263328552246 
vt 1.2691364288330078 1.0511467456817627 
vt 0.1287151277065277 1.0511467456817627 
vt -0.1353529989719391 0.9382874965667725 
vt -0.13510440289974213 0.2956339716911316 
vt 1.1046298742294312 0.9382874965667725 
vt 1.1043813228607178 0.2956339716911316 
vt 1.0959912538528442 0.2872515320777893 
vt -0.12671439349651337 0.2872515320777893 
vt 1.3562061786651611 0.49499019980430603 
vt 1.3562061786651611 0.8601729273796082 
vt 1.1005902290344238 0.49499019980430603 
vt 1.1005902290344238 0.8601729273796082 
vt 1.892173171043396 0.6432621479034424 
vt 0.10975989699363708 0.6432621479034424 
vt 1.892173171043396 0.2163652777671814 
vt 0.10975989699363708 0.2163652777671814 
vt 1.5224529504776 0.8551313281059265 
vt 1.5224529504776 1.2203140258789062 
vt 1.2667747735977173 0.8551313281059265 
vt 1.2667747735977173 1.2203140258789062 
vt 0.09590082615613937 1.2126604318618774 
vt 0.09590082615613937 0.19625957310199738 
vt 1.9010603427886963 1.2126604318618774 
vt 1.9010603427886963 0.19625957310199738 
vt 0.36177125573158264 0.6015929579734802 
vt 0.36177125573158264 0.2364102303981781 
vt 0.6174493432044983 0.6015929579734802 
vt 0.6174493432044983 0.2364102303981781 
vt 0.5464760065078735 1.5158252716064453 
vt 0.5464760065078735 1.1506426334381104 
vt 1.2570797204971313 1.5158252716064453 
vt 1.2570797204971313 1.1506426334381104 
vt 1.0636119842529297 1.3219358921051025 
vt 1.0636119842529297 0.9566924571990967 
vt 1.3192901611328125 1.3219358921051025 
vt 1.3192901611328125 0.9566924571990967 
vt 1.1572073698043823 0.8807645440101624 
vt 0.1408340483903885 0.8807645440101624 
vt 1.1572073698043823 0.38267770409584045 
vt 0.1408340483903885 0.38267770409584045 
vt 1.857370138168335 0.8181999921798706 
vt 1.857370138168335 1.1833827495574951 
vt 1.1467043161392212 0.8181999921798706 
vt 1.1467043161392212 1.1833827495574951 
vt 0.20049642026424408 1.2585209608078003 
vt 0.20049642026424408 0.2421807497739792 
vt 0.6986150145530701 1.2585209608078003 
vt 0.6986150145530701 0.2421807497739792 
vt 0.11827421188354492 1.0081411600112915 
vt 1.2795151472091675 1.0081411600112915 
vt 0.10795759409666061 0.9931378364562988 
vt 1.2898317575454712 0.9931378364562988 
vt 1.3004591464996338 0.9828723669052124 
vt 0.0973302349448204 0.9828723669052124 
vt 0.07974226772785187 0.9701772332191467 
vt 1.3180471658706665 0.9701772332191467 
vt 0.07974226772785187 0.9583324790000916 
vt 1.3180471658706665 0.9583324790000916 
vt 1.3189172744750977 0.9382874965667725 
vt 1.3318440914154053 0.955052375793457 
vt 1.3318440914154053 0.9382874965667725 
vt 0.07893434166908264 0.9382874965667725 
vt 0.06600749492645264 0.9382874965667725 
vt 1.085798978805542 1.9949605464935303 
vt 0.06942564994096756 1.9949605464935303 
vt 1.085798978805542 0.18982088565826416 
vt 0.06942564994096756 0.18982088565826416 
vt 1.1867899894714355 0.004617619793862104 
vt 1.1867899894714355 0.38443922996520996 
vt 0.15028057992458344 0.004617619793862104 
vt 0.15028057992458344 0.38443922996520996 
vt 1.1867899894714355 0.38814449310302734 
vt 0.15028057992458344 0.38814449310302734 
vt 1.1867899894714355 0.4180297255516052 
vt 0.15028057992458344 0.4180297255516052 
vt 1.1867899894714355 0.42240315675735474 
vt 0.15028057992458344 0.42240315675735474 
vt 1.1867899894714355 0.8185644149780273 
vt 0.15028057992458344 0.8185644149780273 
vt 0.06600749492645264 0.955052375793457 
s on 
f 1/1/1 2/2/2 3/3/3 
f 2/2/2 4/4/4 3/3/3 
f 3/3/3 4/4/4 4/4/4 
f 4/4/4 5/5/5 4/4/4 
f 4/4/4 5/5/5 5/5/5 
f 5/5/5 6/6/6 5/5/5 
f 5/5/5 6/6/6 7/7/7 
f 6/6/6 8/8/8 7/7/7 
f 7/7/7 8/8/8 8/8/8 
f 8/8/8 9/9/9 8/8/8 
f 8/8/8 9/9/9 9/9/9 
f 9/9/9 10/10/10 9/9/9 
f 9/9/9 10/10/10 11/11/11 
f 10/10/10 12/12/12 11/11/11 
f 11/11/11 12/12/12 12/12/12 
f 12/12/12 10/10/10 12/12/12 
f 12/12/12 10/10/10 10/10/10 
f 10/10/10 13/13/13 10/10/10 
f 10/10/10 13/13/13 12/12/12 
f 13/13/13 14/14/14 12/12/12 
f 12/12/12 14/14/14 14/14/14 
f 14/14/14 13/13/13 14/14/14 
f 14/14/14 13/13/13 13/13/13 
f 13/13/13 15/15/15 13/13/13 
f 13/13/13 15/15/15 14/14/14 
f 15/15/15 16/16/16 14/14/14 
f 14/14/14 16/16/16 16/16/16 
f 16/16/16 15/15/15 16/16/16 
f 16/16/16 15/15/15 15/15/15 
f 15/15/15 17/17/17 15/15/15 
f 15/15/15 17/17/17 16/16/16 
f 17/17/17 18/18/18 16/16/16 
f 16/16/16 18/18/18 18/18/18 
f 18/18/18 17/17/17 18/18/18 
f 18/18/18 17/17/17 17/17/17 
f 17/17/17 19/19/19 17/17/17 
f 17/17/17 19/19/19 18/18/18 
f 19/19/19 20/20/20 18/18/18 
f 18/18/18 20/20/20 20/20/20 
f 20/20/20 21/21/21 20/20/20 
f 20/20/20 21/21/21 21/21/21 
f 21/21/21 22/22/22 21/21/21 
f 21/21/21 22/22/22 23/23/23 
f 22/22/22 24/24/24 23/23/23 
f 23/23/23 24/24/24 24/24/24 
f 24/24/24 25/25/25 24/24/24 
f 24/24/24 25/25/25 25/25/25 
f 25/25/25 26/26/26 25/25/25 
f 25/25/25 26/26/26 27/27/27 
f 26/26/26 28/28/28 27/27/27 
f 27/27/27 28/28/28 29/29/29 
f 28/28/28 29/29/29 29/29/29 
f 29/29/29 29/29/29 29/29/29 
f 29/29/29 30/30/30 29/29/29 
f 29/29/29 30/30/30 27/27/27 
f 30/30/30 31/31/31 27/27/27 
f 27/27/27 31/31/31 32/32/32 
f 31/31/31 32/32/32 32/32/32 
f 32/32/32 32/32/32 33/33/33 
f 32/32/32 33/33/33 33/33/33 
f 33/33/33 33/33/33 33/33/33 
f 33/33/33 34/34/34 33/33/33 
f 33/33/33 34/34/34 35/35/35 
f 34/34/34 36/36/36 35/35/35 
f 35/35/35 36/36/36 36/36/36 
f 36/36/36 34/34/34 36/36/36 
f 36/36/36 34/34/34 37/37/37 
f 34/34/34 38/38/38 37/37/37 
f 37/37/37 38/38/38 38/38/38 
f 38/38/38 39/39/39 38/38/38 
f 38/38/38 39/39/39 39/39/39 
f 39/39/39 40/40/40 39/39/39 
f 39/39/39 40/40/40 41/41/41 
f 40/40/40 42/42/42 41/41/41 
f 41/41/41 42/42/42 42/42/42 
f 42/42/42 43/43/43 42/42/42 
f 42/42/42 43/43/43 43/43/43 
f 43/43/43 44/44/44 43/43/43 
f 43/43/43 44/44/44 45/45/45 
f 44/44/44 46/46/46 45/45/45 
f 45/45/45 46/46/46 46/46/46 
f 46/46/46 47/47/47 46/46/46 
f 46/46/46 47/47/47 47/47/47 
f 47/47/47 48/48/48 47/47/47 
f 47/47/47 48/48/48 49/49/49 
f 48/48/48 50/50/50 49/49/49 
f 49/49/49 50/50/50 50/50/50 
f 50/50/50 51/51/51 50/50/50 
f 50/50/50 51/51/51 51/51/51 
f 51/51/51 52/52/52 51/51/51 
f 51/51/51 52/52/52 53/53/53 
f 52/52/52 54/54/54 53/53/53 
f 53/53/53 54/54/54 54/54/54 
f 54/54/54 55/55/55 54/54/54 
f 54/54/54 55/55/55 55/55/55 
f 55/55/55 56/56/56 55/55/55 
f 55/55/55 56/56/56 57/57/57 
f 56/56/56 58/58/58 57/57/57 
f 57/57/57 58/58/58 58/58/58 
f 58/58/58 59/59/59 58/58/58 
f 58/58/58 59/59/59 59/59/59 
f 59/59/59 60/60/60 59/59/59 
f 59/59/59 60/60/60 61/61/61 
f 60/60/60 62/62/62 61/61/61 
f 61/61/61 62/62/62 62/62/62 
f 62/62/62 63/63/63 62/62/62 
f 62/62/62 63/63/63 63/63/63 
f 63/63/63 64/64/64 63/63/63 
f 63/63/63 64/64/64 65/65/65 
f 64/64/64 66/66/66 65/65/65 
f 65/65/65 66/66/66 66/66/66 
f 66/66/66 67/67/67 66/66/66 
f 66/66/66 67/67/67 67/67/67 
f 67/67/67 68/68/68 67/67/67 
f 67/67/67 68/68/68 69/69/69 
f 68/68/68 70/70/70 69/69/69 
f 69/69/69 70/70/70 70/70/70 
f 70/70/70 71/71/71 70/70/70 
f 70/70/70 71/71/71 71/71/71 
f 71/71/71 72/72/72 71/71/71 
f 71/71/71 72/72/72 73/73/73 
f 72/72/72 74/74/74 73/73/73 
f 73/73/73 74/74/74 74/74/74 
f 74/74/74 75/75/75 74/74/74 
f 74/74/74 75/75/75 75/75/75 
f 75/75/75 76/76/76 75/75/75 
f 75/75/75 76/76/76 77/77/77 
f 76/76/76 78/78/78 77/77/77 
f 77/77/77 78/78/78 78/78/78 
f 78/78/78 26/26/26 78/78/78 
f 78/78/78 26/26/26 26/26/26 
f 26/26/26 79/79/79 26/26/26 
f 26/26/26 79/79/79 28/28/28 
f 79/79/79 80/80/80 28/28/28 
f 28/28/28 80/80/80 80/80/80 
f 80/80/80 79/79/79 80/80/80 
f 80/80/80 79/79/79 79/79/79 
f 79/79/79 81/81/81 79/79/79 
f 79/79/79 81/81/81 80/80/80 
f 81/81/81 82/82/82 80/80/80 
f 80/80/80 82/82/82 82/82/82 
f 82/82/82 81/81/81 82/82/82 
f 82/82/82 81/81/81 83/83/83 
f 81/81/81 84/84/84 83/83/83 
f 83/83/83 84/84/84 85/85/85 
f 84/84/84 85/85/85 85/85/85 
f 85/85/85 85/85/85 83/83/83 
f 85/85/85 83/83/83 83/83/83 
f 83/83/83 83/83/83 83/83/83 
f 83/83/83 85/85/85 83/83/83 
f 83/83/83 85/85/85 86/86/86 
f 85/85/85 87/87/87 86/86/86 
f 86/86/86 87/87/87 88/88/88 
f 87/87/87 89/89/89 88/88/88 
f 88/88/88 89/89/89 90/90/90 
f 89/89/89 91/91/91 90/90/90 
f 90/90/90 91/91/91 91/91/91 
f 91/91/91 89/89/89 91/91/91 
f 91/91/91 89/89/89 89/89/89 
f 89/89/89 87/87/87 89/89/89 
f 89/89/89 87/87/87 92/92/92 
f 87/87/87 93/93/93 92/92/92 
f 92/92/92 93/93/93 93/93/93 
f 93/93/93 94/94/94 93/93/93 
f 93/93/93 94/94/94 94/94/94 
f 94/94/94 95/95/95 94/94/94 
f 94/94/94 95/95/95 96/96/96 
f 95/95/95 97/97/97 96/96/96 
f 96/96/96 97/97/97 97/97/97 
f 97/97/97 98/98/98 97/97/97 
f 97/97/97 98/98/98 98/98/98 
f 98/98/98 99/99/99 98/98/98 
f 98/98/98 99/99/99 100/100/100 
f 99/99/99 101/101/101 100/100/100 
f 100/100/100 101/101/101 101/101/101 
f 101/101/101 99/99/99 101/101/101 
f 101/101/101 99/99/99 99/99/99 
f 99/99/99 102/102/102 99/99/99 
f 99/99/99 102/102/102 101/101/101 
f 102/102/102 103/103/103 101/101/101 
f 101/101/101 103/103/103 103/103/103 
f 103/103/103 102/102/102 103/103/103 
f 103/103/103 102/102/102 102/102/102 
f 102/102/102 104/104/104 102/102/102 
f 102/102/102 104/104/104 103/103/103 
f 104/104/104 105/105/105 103/103/103 
f 103/103/103 105/105/105 105/105/105 
f 105/105/105 104/104/104 105/105/105 
f 105/105/105 104/104/104 104/104/104 
f 104/104/104 106/106/106 104/104/104 
f 104/104/104 106/106/106 105/105/105 
f 106/106/106 107/107/107 105/105/105 
f 105/105/105 107/107/107 107/107/107 
f 107/107/107 106/106/106 107/107/107 
f 107/107/107 106/106/106 106/106/106 
f 106/106/106 108/108/108 106/106/106 
f 106/106/106 108/108/108 107/107/107 
f 108/108/108 109/109/109 107/107/107 
f 87/87/87 110/110/110 93/93/93 

