mtllib model_2.mtl
o model_2
v 2.2100000381469727 -0.39992254972457886 1.649999976158142 
v 2.219923257827759 -0.41992253065109253 1.649999976158142 
v 2.2100000381469727 -0.39992254972457886 1.6600099802017212 
v 2.219923257827759 -0.41992253065109253 1.649999976158142 
v 2.219923257827759 -0.41992253065109253 1.6600099802017212 
v 4.28000020980835 -0.5771549940109253 0.825152575969696 
v 4.28000020980835 -0.5771549940109253 0.1049133911728859 
v 3.680000066757202 -0.5771549940109253 0.1049133911728859 
v 3.6896727085113525 -0.5771549940109253 0.06904302537441254 
v 3.71634578704834 -0.5771549940109253 0.0426122285425663 
v 3.7529850006103516 -0.5771549940109253 0.03222870081663132 
v 3.680000066757202 -0.5771549940109253 0.839311957359314 
v 3.680000066757202 -0.5771549940109253 1.8918240070343018 
v 4.28000020980835 -0.5771549940109253 1.8918240070343018 
v 3.6896727085113525 -0.5771549940109253 1.9286383390426636 
v 3.71634578704834 -0.5771549940109253 1.9550690650939941 
v 3.7529850006103516 -0.5771549940109253 1.9645086526870728 
v 4.207015514373779 -0.5771549940109253 1.9645086526870728 
v 4.243654251098633 -0.5771549940109253 1.9550690650939941 
v 4.270327568054199 -0.5771549940109253 0.06904302537441254 
v 4.243654251098633 -0.5771549940109253 0.0426122285425663 
v 4.207015514373779 -0.5771549940109253 0.03222870081663132 
v 4.28000020980835 -0.5674166083335876 1.8918240070343018 
v 3.680000066757202 0.02999703772366047 1.8918240070343018 
v 3.680000066757202 -0.5674166083335876 1.8918240070343018 
v 4.28000020980835 -0.5674166083335876 1.8918240070343018 
v 4.28000020980835 0.02999703772366047 1.8918240070343018 
v 3.680000066757202 0.02999703772366047 1.8918240070343018 
v 4.207015514373779 -0.5771549940109253 0.03222870081663132 
v 3.7529850006103516 -0.5771549940109253 0.03222870081663132 
v 3.680000066757202 -0.5771549940109253 0.1049133911728859 
v 3.680000066757202 -0.5771549940109253 0.825152575969696 
v 4.202032566070557 -0.7352167963981628 0.9412592649459839 
v 4.114099025726318 -0.7367150187492371 0.9384274482727051 
v 4.202032566070557 -0.7352167963981628 0.911996603012085 
v 4.149272441864014 -0.7202346324920654 0.9393713474273682 
v 4.026458263397217 -0.7202346324920654 0.91860431432724 
v 4.026458263397217 -0.7202346324920654 0.9346516132354736 
v 4.149272441864014 -0.7202346324920654 0.9138845205307007 
v 4.026458263397217 -0.7202346324920654 0.91860431432724 
v 4.114099025726318 -0.7367150187492371 0.9384274482727051 
v 4.006819725036621 -0.7303475737571716 0.9346516132354736 
v 4.114099025726318 -0.7367150187492371 0.9148284792900085 
v 4.006819725036621 -0.7303475737571716 0.9346516132354736 
v 4.006819725036621 -0.7303475737571716 0.91860431432724 
v 4.114099025726318 -0.7367150187492371 0.9148284792900085 
v 4.114099025726318 -0.7367150187492371 0.9384274482727051 
v 4.114099025726318 -0.7367150187492371 0.9148284792900085 
v 4.202032566070557 -0.7352167963981628 0.911996603012085 
v 4.202032566070557 -0.7352167963981628 0.7222612500190735 
v 4.114099025726318 -0.7367150187492371 0.7194293737411499 
v 4.202032566070557 -0.7352167963981628 0.6929985880851746 
v 4.149272441864014 -0.7202346324920654 0.7203733325004578 
v 4.026458263397217 -0.7202346324920654 0.6996062994003296 
v 4.026458263397217 -0.7202346324920654 0.7165974974632263 
v 4.149272441864014 -0.7202346324920654 0.6948865056037903 
v 4.026458263397217 -0.7202346324920654 0.6996062994003296 
v 4.114099025726318 -0.7367150187492371 0.7194293737411499 
v 4.006819725036621 -0.7303475737571716 0.7156535387039185 
v 4.114099025726318 -0.7367150187492371 0.696774423122406 
v 4.006819725036621 -0.7303475737571716 0.7156535387039185 
v 4.006819725036621 -0.7303475737571716 0.7005502581596375 
v 4.114099025726318 -0.7367150187492371 0.696774423122406 
v 4.114099025726318 -0.7367150187492371 0.7194293737411499 
v 4.114099025726318 -0.7367150187492371 0.696774423122406 
v 4.202032566070557 -0.7352167963981628 0.6929985880851746 
v 4.270327568054199 -0.5771549940109253 1.9286383390426636 
v 4.28000020980835 -0.5771549940109253 0.839311957359314 
v 3.680000066757202 -0.5771549940109253 0.839311957359314 
v 0.001999838510528207 -2.498929500579834 1.685440182685852 
v 0.001999838510528207 -2.529803991317749 1.6711753606796265 
v -1.574800023718126e-7 -2.498929500579834 1.685440182685852 
v -1.574800023718126e-7 -2.529803991317749 1.6711753606796265 
v -1.574800023718126e-7 -2.529803991317749 1.6711753606796265 
v 0.001999838510528207 -2.529803991317749 1.6711753606796265 
v -1.574800023718126e-7 -2.5610692501068115 1.685440182685852 
v 0.001999838510528207 -2.5610692501068115 1.685440182685852 
v 0.001999838510528207 -2.498929500579834 1.685440182685852 
v -1.574800023718126e-7 -2.498929500579834 1.685440182685852 
v -1.574800023718126e-7 -2.529803991317749 1.700095772743225 
v 0.001999838510528207 -2.529803991317749 1.700095772743225 
v 0.001999838510528207 -2.498929500579834 1.685440182685852 
v -1.574800023718126e-7 -2.529803991317749 1.700095772743225 
v -1.574800023718126e-7 -2.5610692501068115 1.685440182685852 
v 0.001999838510528207 -2.5610692501068115 1.685440182685852 
v 0.001999838510528207 -2.5610692501068115 1.685440182685852 
v 0.001999838510528207 -2.529803991317749 1.700095772743225 
vn -0.8957543969154358 -0.4445439279079437 0.002184694167226553 
vn -0.8957543969154358 -0.4445439279079437 0.002184694167226553 
vn -0.8957543969154358 -0.4445439279079437 0.002184694167226553 
vn -0.8957543969154358 -0.4445439279079437 0.002184694167226553 
vn -0.8957543969154358 -0.4445439279079437 0.002184694167226553 
vn -1.0341130485562108e-13 0.999997615814209 0.002184694167226553 
vn -1.0341130485562108e-13 0.999997615814209 0.002184694167226553 
vn -1.0341130485562108e-13 0.999997615814209 0.002184694167226553 
vn -1.0341130485562108e-13 0.999997615814209 0.002184694167226553 
vn -1.0341130485562108e-13 0.999997615814209 0.002184694167226553 
vn -1.0341130485562108e-13 0.999997615814209 0.002184694167226553 
vn -1.0341130485562108e-13 0.999997615814209 0.002184694167226553 
vn -1.0341130485562108e-13 0.999997615814209 0.002184694167226553 
vn -1.0341130485562108e-13 0.999997615814209 0.002184694167226553 
vn -1.0341130485562108e-13 0.999997615814209 0.002184694167226553 
vn -1.0341130485562108e-13 0.999997615814209 0.002184694167226553 
vn -1.0341130485562108e-13 0.999997615814209 0.002184694167226553 
vn -1.0341130485562108e-13 0.999997615814209 0.002184694167226553 
vn -1.0341130485562108e-13 0.999997615814209 0.002184694167226553 
vn -1.0341130485562108e-13 0.999997615814209 0.002184694167226553 
vn -1.0341130485562108e-13 0.999997615814209 0.002184694167226553 
vn -1.0341130485562108e-13 0.999997615814209 0.002184694167226553 
vn 0 0 1 
vn 0 0 1 
vn 0 0 1 
vn 0 0 1 
vn 0 0 1 
vn 0 0 1 
vn -1.0341130485562108e-13 0.999997615814209 0.002184694167226553 
vn -1.0341130485562108e-13 0.999997615814209 0.002184694167226553 
vn -1.0341130485562108e-13 0.999997615814209 0.002184694167226553 
vn -1.0341130485562108e-13 0.999997615814209 0.002184694167226553 
vn 0.015103200450539589 -0.9998835325241089 -0.002184694167226553 
vn 0.015103200450539589 -0.9998835325241089 -0.002184694167226553 
vn 0.015103200450539589 -0.9998835325241089 -0.002184694167226553 
vn -1.0341130485562108e-13 0.999997615814209 0.002184694167226553 
vn -1.0341130485562108e-13 0.999997615814209 0.002184694167226553 
vn -1.0341130485562108e-13 0.999997615814209 0.002184694167226553 
vn -1.0341130485562108e-13 0.999997615814209 0.002184694167226553 
vn -1.0341130485562108e-13 0.999997615814209 0.002184694167226553 
vn -0.06037835404276848 -0.998173177242279 0.002184694167226553 
vn -0.06037835404276848 -0.998173177242279 0.002184694167226553 
vn -0.06037835404276848 -0.998173177242279 0.002184694167226553 
vn -0.06037835404276848 -0.998173177242279 0.002184694167226553 
vn -0.06037835404276848 -0.998173177242279 0.002184694167226553 
vn -0.06037835404276848 -0.998173177242279 0.002184694167226553 
vn 0.015103200450539589 -0.9998835325241089 0.002184694167226553 
vn 0.015103200450539589 -0.9998835325241089 0.002184694167226553 
vn 0.015103200450539589 -0.9998835325241089 0.002184694167226553 
vn 0.015103200450539589 -0.9998835325241089 -0.002184694167226553 
vn 0.015103200450539589 -0.9998835325241089 -0.002184694167226553 
vn 0.015103200450539589 -0.9998835325241089 -0.002184694167226553 
vn -1.0341130485562108e-13 0.999997615814209 0.002184694167226553 
vn -1.0341130485562108e-13 0.999997615814209 0.002184694167226553 
vn -1.0341130485562108e-13 0.999997615814209 0.002184694167226553 
vn -1.0341130485562108e-13 0.999997615814209 0.002184694167226553 
vn -1.0341130485562108e-13 0.999997615814209 0.002184694167226553 
vn -0.06037835404276848 -0.998173177242279 0.002184694167226553 
vn -0.06037835404276848 -0.998173177242279 0.002184694167226553 
vn -0.06037835404276848 -0.998173177242279 0.002184694167226553 
vn -0.06037835404276848 -0.998173177242279 0.002184694167226553 
vn -0.06037835404276848 -0.998173177242279 0.002184694167226553 
vn -0.06037835404276848 -0.998173177242279 0.002184694167226553 
vn 0.015103200450539589 -0.9998835325241089 0.002184694167226553 
vn 0.015103200450539589 -0.9998835325241089 0.002184694167226553 
vn 0.015103200450539589 -0.9998835325241089 0.002184694167226553 
vn -1.0341130485562108e-13 0.999997615814209 0.002184694167226553 
vn -1.0341130485562108e-13 0.999997615814209 0.002184694167226553 
vn -1.0341130485562108e-13 0.999997615814209 0.002184694167226553 
vn -4.335066851389284e-14 0.41920527815818787 -0.9078915119171143 
vn -4.335066851389284e-14 0.41920527815818787 -0.9078915119171143 
vn -4.335066851389284e-14 0.41920527815818787 -0.9078915119171143 
vn -4.335066851389284e-14 0.41920527815818787 -0.9078915119171143 
vn 1.3023817321908965e-13 -0.41920527815818787 -0.9078915119171143 
vn 1.3023817321908965e-13 -0.41920527815818787 -0.9078915119171143 
vn 1.3023817321908965e-13 -0.41920527815818787 -0.9078915119171143 
vn 1.3023817321908965e-13 -0.41920527815818787 -0.9078915119171143 
vn 0.0018830278422683477 0.4231640100479126 0.9060511589050293 
vn 0.0018830278422683477 0.4231640100479126 0.9060511589050293 
vn 0.0018830278422683477 0.4231640100479126 0.9060511589050293 
vn 0.0018830278422683477 0.4231640100479126 0.9060511589050293 
vn 0.0018830278422683477 0.4231640100479126 0.9060511589050293 
vn 0.0018830278422683477 -0.4231640100479126 0.9060511589050293 
vn 0.0018830278422683477 -0.4231640100479126 0.9060511589050293 
vn 0.0018830278422683477 -0.4231640100479126 0.9060511589050293 
vn 0.0018830278422683477 -0.4231640100479126 0.9060511589050293 
vn 0.0018830278422683477 -0.4231640100479126 0.9060511589050293 
s on 
f 1//1 2//2 3//3 
f 3//3 4//4 5//5 
f 23//23 24//24 25//25 
f 26//26 27//27 28//28 
f 7//7 29//29 30//30 
f 6//6 31//31 32//32 
f 33//33 34//34 35//35 
f 36//36 37//37 38//38 
f 36//36 39//39 40//40 
f 41//41 42//42 43//43 
f 44//44 45//45 46//46 
f 47//47 48//48 49//49 
f 50//50 51//51 52//52 
f 53//53 54//54 55//55 
f 53//53 56//56 57//57 
f 58//58 59//59 60//60 
f 61//61 62//62 63//63 
f 64//64 65//65 66//66 
f 19//19 67//67 14//14 
f 14//14 68//68 69//69 
f 78//78 79//79 80//80 
f 81//81 82//82 80//80 
f 83//83 84//84 85//85 
f 83//83 86//86 87//87 
f 6//6 7//7 8//8 
f 7//7 9//9 8//8 
f 8//8 9//9 9//9 
f 9//9 7//7 9//9 
f 9//9 7//7 10//10 
f 7//7 11//11 10//10 
f 10//10 11//11 11//11 
f 11//11 12//12 11//11 
f 11//11 12//12 12//12 
f 12//12 13//13 12//12 
f 12//12 13//13 14//14 
f 13//13 15//15 14//14 
f 14//14 15//15 16//16 
f 15//15 16//16 16//16 
f 16//16 16//16 16//16 
f 16//16 17//17 16//16 
f 16//16 17//17 14//14 
f 17//17 18//18 14//14 
f 14//14 18//18 19//19 
f 18//18 19//19 19//19 
f 19//19 19//19 20//20 
f 19//19 20//20 20//20 
f 20//20 20//20 20//20 
f 20//20 21//21 20//20 
f 20//20 21//21 7//7 
f 21//21 22//22 7//7 
f 7//7 22//22 22//22 
f 22//22 70//70 22//22 
f 22//22 70//70 70//70 
f 70//70 71//71 70//70 
f 70//70 71//71 72//72 
f 71//71 73//73 72//72 
f 72//72 73//73 73//73 
f 73//73 74//74 73//73 
f 73//73 74//74 74//74 
f 74//74 75//75 74//74 
f 74//74 75//75 76//76 
f 75//75 77//77 76//76 

