{
    "asset" : {
        "generator" : "Khronos glTF Blender I/O v3.4.50",
        "version" : "2.0"
    },
    "scene" : 0,
    "scenes" : [
        {
            "name" : "Scene",
            "nodes" : [
                0
            ]
        }
    ],
    "nodes" : [
        {
            "mesh" : 0,
            "name" : "model_1",
            "rotation" : [
                0,
                -1,
                0,
                4.371139183945161e-08
            ],
            "scale" : [
                1.655570149421692,
                1.655570149421692,
                1.655570149421692
            ],
            "translation" : [
                -0.8024259805679321,
                0.16364626586437225,
                -0.02535206452012062
            ]
        }
    ],
    "materials" : [
        {
            "doubleSided" : true,
            "name" : "Material.011",
            "pbrMetallicRoughness" : {
                "baseColorTexture" : {
                    "index" : 0
                },
                "metallicFactor" : 0,
                "roughnessFactor" : 0.5
            }
        }
    ],
    "meshes" : [
        {
            "name" : "model_1.007",
            "primitives" : [
                {
                    "attributes" : {
                        "POSITION" : 0,
                        "TEXCOORD_0" : 1,
                        "NORMAL" : 2
                    },
                    "indices" : 3,
                    "material" : 0
                }
            ]
        }
    ],
    "textures" : [
        {
            "sampler" : 0,
            "source" : 0
        }
    ],
    "images" : [
        {
            "bufferView" : 4,
            "mimeType" : "image/png",
            "name" : "applianc"
        }
    ],
    "accessors" : [
        {
            "bufferView" : 0,
            "componentType" : 5126,
            "count" : 3010,
            "max" : [
                4.28000020980835,
                2.409980058670044,
                0.7367150187492371
            ],
            "min" : [
                1.3899999856948853,
                -5.396410061023942e-15,
                -0.0299970805644989
            ],
            "type" : "VEC3"
        },
        {
            "bufferView" : 1,
            "componentType" : 5126,
            "count" : 3010,
            "type" : "VEC2"
        },
        {
            "bufferView" : 2,
            "componentType" : 5126,
            "count" : 3010,
            "type" : "VEC3"
        },
        {
            "bufferView" : 3,
            "componentType" : 5123,
            "count" : 3150,
            "type" : "SCALAR"
        }
    ],
    "bufferViews" : [
        {
            "buffer" : 0,
            "byteLength" : 36120,
            "byteOffset" : 0,
            "target" : 34962
        },
        {
            "buffer" : 0,
            "byteLength" : 24080,
            "byteOffset" : 36120,
            "target" : 34962
        },
        {
            "buffer" : 0,
            "byteLength" : 36120,
            "byteOffset" : 60200,
            "target" : 34962
        },
        {
            "buffer" : 0,
            "byteLength" : 6300,
            "byteOffset" : 96320,
            "target" : 34963
        },
        {
            "buffer" : 0,
            "byteLength" : 1369813,
            "byteOffset" : 102620
        }
    ],
    "samplers" : [
        {
            "magFilter" : 9729,
            "minFilter" : 9987
        }
    ],
    "buffers" : [
        {
            "byteLength" : 1472436,
            "uri" : "data:application/octet-stream;base64,"
        }
    ]
}
