mtllib model_1.mtl
o model_1
v -0.9988637566566467 0.9766111373901367 -1.0459004640579224 
v -0.9988637566566467 0.9766111373901367 -0.9284328818321228 
v -0.9988637566566467 -0.9791842699050903 -1.0459004640579224 
v -0.9988637566566467 -0.9791842699050903 -0.9284328818321228 
v 0.8458123207092285 0.9766111373901367 -1.0459004640579224 
v 0.8458123207092285 0.9766111373901367 -0.9284328818321228 
v -0.9988637566566467 0.9766111373901367 -1.0459004640579224 
v -0.9988637566566467 0.9766111373901367 -0.9284328818321228 
v -0.9988637566566467 -0.9791842699050903 -1.0459004640579224 
v 0.8458123207092285 -0.9791842699050903 -1.0459004640579224 
v -0.9988637566566467 0.9766111373901367 -1.0459004640579224 
v 0.8458123207092285 0.9766111373901367 -1.0459004640579224 
v -1.0519969463348389 1.0098227262496948 -0.9284328818321228 
v -1.0519969463348389 1.0098227262496948 0.7612935304641724 
v -1.0519969463348389 -1.0123958587646484 -0.9284328818321228 
v -1.0519969463348389 -1.0123958587646484 0.7612935304641724 
v 0.8458123207092285 1.0098227262496948 -0.9284328818321228 
v 0.8458123207092285 1.0098227262496948 0.7612935304641724 
v -1.0519969463348389 1.0098227262496948 -0.9284328818321228 
v -1.0519969463348389 1.0098227262496948 0.7612935304641724 
v 0.8458123207092285 -5.606669902801514 0.7612935304641724 
v -1.9429999589920044 -5.606669902801514 0.7612935304641724 
v 0.8458123207092285 -5.606669902801514 -4.633180618286133 
v -1.9429999589920044 -5.606669902801514 -4.633180618286133 
v -1.9429999589920044 -5.606669902801514 0.7612935304641724 
v -1.9429999589920044 1.947128415107727 0.7612935304641724 
v -1.9429999589920044 -5.606669902801514 -4.633180618286133 
v -1.9429999589920044 1.947128415107727 -4.633180618286133 
v -1.9429999589920044 1.947128415107727 -4.633180618286133 
v -1.8803300857543945 1.7773802280426025 -4.7205281257629395 
v -1.9429999589920044 -5.606669902801514 -4.633180618286133 
v -1.8803300857543945 -5.4369215965271 -4.7205281257629395 
v -1.9429999589920044 1.947128415107727 0.7612935304641724 
v 0.8458123207092285 1.947128415107727 0.7612935304641724 
v -1.9429999589920044 1.947128415107727 -4.633180618286133 
v 0.8458123207092285 1.947128415107727 -4.633180618286133 
v 0.7831423878669739 -5.4369215965271 -4.7205281257629395 
v 0.7831423878669739 -5.4369215965271 -5.404250144958496 
v 0.7831423878669739 1.7773802280426025 -4.7205281257629395 
v 0.7831423878669739 1.7773802280426025 -5.404250144958496 
v 0.8458123207092285 -5.606669902801514 -4.633180618286133 
v 0.7831423878669739 -5.4369215965271 -4.7205281257629395 
v 0.8458123207092285 1.947128415107727 -4.633180618286133 
v 0.7831423878669739 1.7773802280426025 -4.7205281257629395 
v 0.8458123207092285 1.947128415107727 -4.633180618286133 
v 0.7831423878669739 1.7773802280426025 -4.7205281257629395 
v -1.9429999589920044 1.947128415107727 -4.633180618286133 
v -1.8803300857543945 1.7773802280426025 -4.7205281257629395 
v -1.9429999589920044 -5.606669902801514 -4.633180618286133 
v -1.8803300857543945 -5.4369215965271 -4.7205281257629395 
v 0.8458123207092285 -5.606669902801514 -4.633180618286133 
v 0.7831423878669739 -5.4369215965271 -4.7205281257629395 
v 0.7831423878669739 1.7773802280426025 -5.404250144958496 
v 0.7831423878669739 -5.4369215965271 -5.404250144958496 
v -1.8803300857543945 1.7773802280426025 -5.404250144958496 
v -1.8803300857543945 -5.4369215965271 -5.404250144958496 
v 0.7831423878669739 1.7773802280426025 -4.7205281257629395 
v 0.7831423878669739 1.7773802280426025 -5.404250144958496 
v -1.8803300857543945 1.7773802280426025 -4.7205281257629395 
v -1.8803300857543945 1.7773802280426025 -5.404250144958496 
v -1.8803300857543945 -5.4369215965271 -4.7205281257629395 
v -1.8803300857543945 -5.4369215965271 -5.404250144958496 
v 0.7831423878669739 -5.4369215965271 -4.7205281257629395 
v 0.7831423878669739 -5.4369215965271 -5.404250144958496 
v -1.8803300857543945 1.7773802280426025 -4.7205281257629395 
v -1.8803300857543945 1.7773802280426025 -5.404250144958496 
v -1.8803300857543945 -5.4369215965271 -4.7205281257629395 
v -1.8803300857543945 -5.4369215965271 -5.404250144958496 
v -1.0519969463348389 -1.0123958587646484 -0.9284328818321228 
v -1.0519969463348389 -1.0123958587646484 0.7612935304641724 
v 0.8458123207092285 -1.0123958587646484 -0.9284328818321228 
v 0.8458123207092285 -1.0123958587646484 0.7612935304641724 
v -0.9988637566566467 -0.9791842699050903 -1.0459004640579224 
v -0.9988637566566467 -0.9791842699050903 -0.9284328818321228 
v 0.8458123207092285 -0.9791842699050903 -1.0459004640579224 
v 0.8458123207092285 -0.9791842699050903 -0.9284328818321228 
v 0.8458123207092285 -0.9791842699050903 -0.9284328818321228 
v -0.9988637566566467 -0.9791842699050903 -0.9284328818321228 
v 0.8458123207092285 -1.0123958587646484 -0.9284328818321228 
v -1.0519969463348389 -1.0123958587646484 -0.9284328818321228 
v -1.0519969463348389 1.0098227262496948 -0.9284328818321228 
v -0.9988637566566467 0.9766111373901367 -0.9284328818321228 
v 0.8458123207092285 1.0098227262496948 -0.9284328818321228 
v 0.8458123207092285 0.9766111373901367 -0.9284328818321228 
v 0.8458123207092285 -1.0123958587646484 0.7612935304641724 
v -1.0519969463348389 -1.0123958587646484 0.7612935304641724 
v 0.8458123207092285 -5.606669902801514 0.7612935304641724 
v -1.9429999589920044 -5.606669902801514 0.7612935304641724 
v -1.9429999589920044 1.947128415107727 0.7612935304641724 
v -1.0519969463348389 1.0098227262496948 0.7612935304641724 
v 0.8458123207092285 1.947128415107727 0.7612935304641724 
v 0.8458123207092285 1.0098227262496948 0.7612935304641724 
v 0.8458123207092285 -5.606669902801514 -4.633180618286133 
v 0.8458123207092285 1.947128415107727 -4.633180618286133 
v 0.8458123207092285 -5.606669902801514 0.7612935304641724 
v 0.8458123207092285 -0.9791842699050903 -1.0459004640579224 
v 0.8458123207092285 -1.0123958587646484 -0.9284328818321228 
v 0.8458123207092285 -0.9791842699050903 -0.9284328818321228 
v 0.8458123207092285 0.9766111373901367 -1.0459004640579224 
v 0.8458123207092285 0.9766111373901367 -0.9284328818321228 
v 0.8458123207092285 1.0098227262496948 -0.9284328818321228 
v 0.8458123207092285 1.0098227262496948 0.7612935304641724 
v 0.8458123207092285 1.947128415107727 0.7612935304641724 
v 0.8458123207092285 -1.0123958587646484 0.7612935304641724 
vn 0.999997615814209 0 0.002184694167226553 
vn 0.999997615814209 0 0.002184694167226553 
vn 0.999997615814209 0 0.002184694167226553 
vn 0.999997615814209 0 0.002184694167226553 
vn 3.097898456858039e-13 -0.999997615814209 0.002184694167226553 
vn 3.097898456858039e-13 -0.999997615814209 0.002184694167226553 
vn 3.097898456858039e-13 -0.999997615814209 0.002184694167226553 
vn 3.097898456858039e-13 -0.999997615814209 0.002184694167226553 
vn 0 0 1 
vn 0 0 1 
vn 0 0 1 
vn 0 0 1 
vn 0.999997615814209 0 0.002184694167226553 
vn 0.999997615814209 0 0.002184694167226553 
vn 0.999997615814209 0 0.002184694167226553 
vn 0.999997615814209 0 0.002184694167226553 
vn 3.097898456858039e-13 -0.999997615814209 0.002184694167226553 
vn 3.097898456858039e-13 -0.999997615814209 0.002184694167226553 
vn 3.097898456858039e-13 -0.999997615814209 0.002184694167226553 
vn 3.097898456858039e-13 -0.999997615814209 0.002184694167226553 
vn 3.097898456858039e-13 -0.999997615814209 0.002184694167226553 
vn 3.097898456858039e-13 -0.999997615814209 0.002184694167226553 
vn 3.097898456858039e-13 -0.999997615814209 0.002184694167226553 
vn 3.097898456858039e-13 -0.999997615814209 0.002184694167226553 
vn -0.999997615814209 -2.0682260971124217e-13 0.002184694167226553 
vn -0.999997615814209 -2.0682260971124217e-13 0.002184694167226553 
vn -0.999997615814209 -2.0682260971124217e-13 0.002184694167226553 
vn -0.999997615814209 -2.0682260971124217e-13 0.002184694167226553 
vn -0.8072065711021423 0.0037793335504829884 -0.590256929397583 
vn -0.8072065711021423 0.0037793335504829884 -0.590256929397583 
vn -0.8072065711021423 0.0037793335504829884 -0.590256929397583 
vn -0.8072065711021423 0.0037793335504829884 -0.590256929397583 
vn -1.0341130485562108e-13 0.999997615814209 0.002184694167226553 
vn -1.0341130485562108e-13 0.999997615814209 0.002184694167226553 
vn -1.0341130485562108e-13 0.999997615814209 0.002184694167226553 
vn -1.0341130485562108e-13 0.999997615814209 0.002184694167226553 
vn 0.999997615814209 0 0.002184694167226553 
vn 0.999997615814209 0 0.002184694167226553 
vn 0.999997615814209 0 0.002184694167226553 
vn 0.999997615814209 0 0.002184694167226553 
vn 0.8072154521942139 0 -0.590256929397583 
vn 0.8072154521942139 0 -0.590256929397583 
vn 0.8072154521942139 0 -0.590256929397583 
vn 0.8072154521942139 0 -0.590256929397583 
vn -0.001887790858745575 0.45067423582077026 -0.8926864862442017 
vn -0.001887790858745575 0.45067423582077026 -0.8926864862442017 
vn -0.001887790858745575 0.45067423582077026 -0.8926864862442017 
vn -0.001887790858745575 0.45067423582077026 -0.8926864862442017 
vn -0.001887790858745575 -0.45067423582077026 -0.8926864862442017 
vn -0.001887790858745575 -0.45067423582077026 -0.8926864862442017 
vn -0.001887790858745575 -0.45067423582077026 -0.8926864862442017 
vn -0.001887790858745575 -0.45067423582077026 -0.8926864862442017 
vn -2.0682311115474694e-13 0 -1 
vn -2.0682311115474694e-13 0 -1 
vn -2.0682311115474694e-13 0 -1 
vn -2.0682311115474694e-13 0 -1 
vn -1.0341130485562108e-13 0.999997615814209 0.002184694167226553 
vn -1.0341130485562108e-13 0.999997615814209 0.002184694167226553 
vn -1.0341130485562108e-13 0.999997615814209 0.002184694167226553 
vn -1.0341130485562108e-13 0.999997615814209 0.002184694167226553 
vn 3.097898456858039e-13 -0.999997615814209 0.002184694167226553 
vn 3.097898456858039e-13 -0.999997615814209 0.002184694167226553 
vn 3.097898456858039e-13 -0.999997615814209 0.002184694167226553 
vn 3.097898456858039e-13 -0.999997615814209 0.002184694167226553 
vn -0.999997615814209 -2.0682260971124217e-13 0.002184694167226553 
vn -0.999997615814209 -2.0682260971124217e-13 0.002184694167226553 
vn -0.999997615814209 -2.0682260971124217e-13 0.002184694167226553 
vn -0.999997615814209 -2.0682260971124217e-13 0.002184694167226553 
vn -1.0341130485562108e-13 0.999997615814209 -0.002184694167226553 
vn -1.0341130485562108e-13 0.999997615814209 -0.002184694167226553 
vn -1.0341130485562108e-13 0.999997615814209 -0.002184694167226553 
vn -1.0341130485562108e-13 0.999997615814209 -0.002184694167226553 
vn -1.0341130485562108e-13 0.999997615814209 0.002184694167226553 
vn -1.0341130485562108e-13 0.999997615814209 0.002184694167226553 
vn -1.0341130485562108e-13 0.999997615814209 0.002184694167226553 
vn -1.0341130485562108e-13 0.999997615814209 0.002184694167226553 
vn 0 0 1 
vn 0 0 1 
vn 0 0 1 
vn 0 0 1 
vn 0 0 1 
vn 0 0 1 
vn 0 0 1 
vn 0 0 1 
vn 0 0 1 
vn 0 0 1 
vn 0 0 1 
vn 0 0 1 
vn 0 0 1 
vn 0 0 1 
vn 0 0 1 
vn 0 0 1 
vn 0.999997615814209 0 -0.002184694167226553 
vn 0.999997615814209 0 -0.002184694167226553 
vn 0.999997615814209 0 -0.002184694167226553 
vn 0.999997615814209 0 -0.002184694167226553 
vn 0.999997615814209 0 -0.002184694167226553 
vn 0.999997615814209 0 -0.002184694167226553 
vn 0.999997615814209 0 -0.002184694167226553 
vn 0.999997615814209 0 -0.002184694167226553 
vn 0.999997615814209 0 -0.002184694167226553 
vn 0.999997615814209 0 -0.002184694167226553 
vn 0.999997615814209 0 -0.002184694167226553 
vn 0.999997615814209 0 -0.002184694167226553 
vt 0.41799938678741455 0.8337932825088501 
vt 0.4131042957305908 0.8337932825088501 
vt 0.41799938678741455 0.776674211025238 
vt 0.4131042957305908 0.776674211025238 
vt 0.40343356132507324 0.776674211025238 
vt 0.4083286225795746 0.776674211025238 
vt 0.40343356132507324 0.9225918054580688 
vt 0.4083286225795746 0.9225918054580688 
vt 0.3474387228488922 0.776674211025238 
vt 0.3474387228488922 0.9225918054580688 
vt 0.29036933183670044 0.776674211025238 
vt 0.29036933183670044 0.9225918054580688 
vt 0.755878746509552 0.8785524964332581 
vt 0.755878746509552 0.9828307628631592 
vt 0.6666929125785828 0.8785524964332581 
vt 0.6666929125785828 0.9828307628631592 
vt 0.7709221243858337 0.8785524964332581 
vt 0.6666929125785828 0.8785524964332581 
vt 0.7709221243858337 0.6517562866210938 
vt 0.6666929125785828 0.6517562866210938 
vt 0.9484580159187317 0.3245217502117157 
vt 0.8244097232818604 0.3245217502117157 
vt 0.9484580159187317 0.005087070167064667 
vt 0.8244097232818604 0.005087070167064667 
vt 0.6542761325836182 0.4845990836620331 
vt 0.2381950318813324 0.4845990836620331 
vt 0.6542761325836182 0.33892151713371277 
vt 0.2381950318813324 0.33892151713371277 
vt 0.010633878409862518 0.3353215754032135 
vt 0.015528949908912182 0.34036147594451904 
vt 0.010633878409862518 0.555997908115387 
vt 0.015528949908912182 0.5510779619216919 
vt 0.7973077893257141 0.32416173815727234 
vt 0.6084296107292175 0.32416173815727234 
vt 0.7973077893257141 0.009167001582682133 
vt 0.6084296107292175 0.009167001582682133 
vt 0.9176549315452576 0.9702309966087341 
vt 0.8752707242965698 0.9702309966087341 
vt 0.9176549315452576 0.6517562866210938 
vt 0.8752707242965698 0.6517562866210938 
vt 0.23127029836177826 0.555997908115387 
vt 0.22637522220611572 0.5510779619216919 
vt 0.23127029836177826 0.3353215754032135 
vt 0.22637522220611572 0.34036147594451904 
vt 0.23127029836177826 0.3353215754032135 
vt 0.22637522220611572 0.34036147594451904 
vt 0.010633878409862518 0.3353215754032135 
vt 0.015528949908912182 0.34036147594451904 
vt 0.010633878409862518 0.555997908115387 
vt 0.015528949908912182 0.5510779619216919 
vt 0.23127029836177826 0.555997908115387 
vt 0.22637522220611572 0.5510779619216919 
vt 0.9851113557815552 0.33328160643577576 
vt 0.9851113557815552 0.6517562866210938 
vt 0.6666929125785828 0.33328160643577576 
vt 0.6666929125785828 0.6517562866210938 
vt 0.3754958212375641 0.9873906970024109 
vt 0.3474387228488922 0.9873906970024109 
vt 0.3754958212375641 0.776674211025238 
vt 0.3474387228488922 0.776674211025238 
vt 0.40343356132507324 0.9873906970024109 
vt 0.3754958212375641 0.9873906970024109 
vt 0.40343356132507324 0.776674211025238 
vt 0.3754958212375641 0.776674211025238 
vt 0.9599196910858154 0.9702309966087341 
vt 0.9176549315452576 0.9702309966087341 
vt 0.9599196910858154 0.6517562866210938 
vt 0.9176549315452576 0.6517562866210938 
vt 0.8752707242965698 0.8785524964332581 
vt 0.7709221243858337 0.8785524964332581 
vt 0.8752707242965698 0.6517562866210938 
vt 0.7709221243858337 0.6517562866210938 
vt 0.4131042957305908 0.9225918054580688 
vt 0.4083286225795746 0.9225918054580688 
vt 0.4131042957305908 0.776674211025238 
vt 0.4083286225795746 0.776674211025238 
vt 0.2322254329919815 0.776674211025238 
vt 0.2322254329919815 0.9225918054580688 
vt 0.23127029836177826 0.776674211025238 
vt 0.23127029836177826 0.9266716837882996 
vt 0.29036933183670044 0.9266716837882996 
vt 0.2892948091030121 0.9225918054580688 
vt 0.29036933183670044 0.776674211025238 
vt 0.2892948091030121 0.776674211025238 
vt 0.010633878409862518 0.6423964500427246 
vt 0.16070961952209473 0.6423964500427246 
vt 0.010633878409862518 0.776674211025238 
vt 0.23127029836177826 0.776674211025238 
vt 0.23127029836177826 0.555997908115387 
vt 0.16070961952209473 0.5833574533462524 
vt 0.010633878409862518 0.555997908115387 
vt 0.010633878409862518 0.5833574533462524 
vt 0.0071715097874403 0.004487080033868551 
vt 0.5987588763237 0.004487080033868551 
vt 0.0071715097874403 0.3223617672920227 
vt 0.3696456253528595 0.21580356359481812 
vt 0.3671383857727051 0.2228834331035614 
vt 0.3696456253528595 0.2228834331035614 
vt 0.5228255391120911 0.21580356359481812 
vt 0.5228255391120911 0.2228834331035614 
vt 0.525452196598053 0.2228834331035614 
vt 0.525452196598053 0.3223617672920227 
vt 0.5987588763237 0.3223617672920227 
vt 0.3671383857727051 0.3223617672920227 
s on 
f 1/1/1 2/2/2 3/3/3 
f 2/2/2 4/4/4 3/3/3 
f 3/3/3 4/4/4 4/4/4 
f 4/4/4 5/5/5 4/4/4 
f 4/4/4 5/5/5 5/5/5 
f 5/5/5 6/6/6 5/5/5 
f 5/5/5 6/6/6 7/7/7 
f 6/6/6 8/8/8 7/7/7 
f 7/7/7 8/8/8 8/8/8 
f 8/8/8 9/9/9 8/8/8 
f 8/8/8 9/9/9 9/9/9 
f 9/9/9 10/10/10 9/9/9 
f 9/9/9 10/10/10 11/11/11 
f 10/10/10 12/12/12 11/11/11 
f 11/11/11 12/12/12 12/12/12 
f 12/12/12 13/13/13 12/12/12 
f 12/12/12 13/13/13 13/13/13 
f 13/13/13 14/14/14 13/13/13 
f 13/13/13 14/14/14 15/15/15 
f 14/14/14 16/16/16 15/15/15 
f 15/15/15 16/16/16 16/16/16 
f 16/16/16 17/17/17 16/16/16 
f 16/16/16 17/17/17 17/17/17 
f 17/17/17 18/18/18 17/17/17 
f 17/17/17 18/18/18 19/19/19 
f 18/18/18 20/20/20 19/19/19 
f 19/19/19 20/20/20 20/20/20 
f 20/20/20 21/21/21 20/20/20 
f 20/20/20 21/21/21 21/21/21 
f 21/21/21 22/22/22 21/21/21 
f 21/21/21 22/22/22 23/23/23 
f 22/22/22 24/24/24 23/23/23 
f 23/23/23 24/24/24 24/24/24 
f 24/24/24 25/25/25 24/24/24 
f 24/24/24 25/25/25 25/25/25 
f 25/25/25 26/26/26 25/25/25 
f 25/25/25 26/26/26 27/27/27 
f 26/26/26 28/28/28 27/27/27 
f 27/27/27 28/28/28 28/28/28 
f 28/28/28 29/29/29 28/28/28 
f 28/28/28 29/29/29 29/29/29 
f 29/29/29 30/30/30 29/29/29 
f 29/29/29 30/30/30 31/31/31 
f 30/30/30 32/32/32 31/31/31 
f 31/31/31 32/32/32 32/32/32 
f 32/32/32 33/33/33 32/32/32 
f 32/32/32 33/33/33 33/33/33 
f 33/33/33 34/34/34 33/33/33 
f 33/33/33 34/34/34 35/35/35 
f 34/34/34 36/36/36 35/35/35 
f 35/35/35 36/36/36 36/36/36 
f 36/36/36 37/37/37 36/36/36 
f 36/36/36 37/37/37 37/37/37 
f 37/37/37 38/38/38 37/37/37 
f 37/37/37 38/38/38 39/39/39 
f 38/38/38 40/40/40 39/39/39 
f 39/39/39 40/40/40 40/40/40 
f 40/40/40 41/41/41 40/40/40 
f 40/40/40 41/41/41 41/41/41 
f 41/41/41 42/42/42 41/41/41 
f 41/41/41 42/42/42 43/43/43 
f 42/42/42 44/44/44 43/43/43 
f 43/43/43 44/44/44 44/44/44 
f 44/44/44 45/45/45 44/44/44 
f 44/44/44 45/45/45 45/45/45 
f 45/45/45 46/46/46 45/45/45 
f 45/45/45 46/46/46 47/47/47 
f 46/46/46 48/48/48 47/47/47 
f 47/47/47 48/48/48 48/48/48 
f 48/48/48 49/49/49 48/48/48 
f 48/48/48 49/49/49 49/49/49 
f 49/49/49 50/50/50 49/49/49 
f 49/49/49 50/50/50 51/51/51 
f 50/50/50 52/52/52 51/51/51 
f 51/51/51 52/52/52 52/52/52 
f 52/52/52 53/53/53 52/52/52 
f 52/52/52 53/53/53 53/53/53 
f 53/53/53 54/54/54 53/53/53 
f 53/53/53 54/54/54 55/55/55 
f 54/54/54 56/56/56 55/55/55 
f 55/55/55 56/56/56 56/56/56 
f 56/56/56 57/57/57 56/56/56 
f 56/56/56 57/57/57 57/57/57 
f 57/57/57 58/58/58 57/57/57 
f 57/57/57 58/58/58 59/59/59 
f 58/58/58 60/60/60 59/59/59 
f 59/59/59 60/60/60 60/60/60 
f 60/60/60 61/61/61 60/60/60 
f 60/60/60 61/61/61 61/61/61 
f 61/61/61 62/62/62 61/61/61 
f 61/61/61 62/62/62 63/63/63 
f 62/62/62 64/64/64 63/63/63 
f 63/63/63 64/64/64 64/64/64 
f 64/64/64 65/65/65 64/64/64 
f 64/64/64 65/65/65 65/65/65 
f 65/65/65 66/66/66 65/65/65 
f 65/65/65 66/66/66 67/67/67 
f 66/66/66 68/68/68 67/67/67 
f 67/67/67 68/68/68 68/68/68 
f 68/68/68 69/69/69 68/68/68 
f 68/68/68 69/69/69 69/69/69 
f 69/69/69 70/70/70 69/69/69 
f 69/69/69 70/70/70 71/71/71 
f 70/70/70 72/72/72 71/71/71 
f 71/71/71 72/72/72 72/72/72 
f 72/72/72 73/73/73 72/72/72 
f 72/72/72 73/73/73 73/73/73 
f 73/73/73 74/74/74 73/73/73 
f 73/73/73 74/74/74 75/75/75 
f 74/74/74 76/76/76 75/75/75 
f 75/75/75 76/76/76 76/76/76 
f 76/76/76 77/77/77 76/76/76 
f 76/76/76 77/77/77 77/77/77 
f 77/77/77 78/78/78 77/77/77 
f 77/77/77 78/78/78 79/79/79 
f 78/78/78 78/78/78 79/79/79 
f 79/79/79 78/78/78 80/80/80 
f 78/78/78 78/78/78 80/80/80 
f 80/80/80 78/78/78 81/81/81 
f 78/78/78 82/82/82 81/81/81 
f 81/81/81 82/82/82 83/83/83 
f 82/82/82 84/84/84 83/83/83 
f 83/83/83 84/84/84 84/84/84 
f 84/84/84 85/85/85 84/84/84 
f 84/84/84 85/85/85 85/85/85 
f 85/85/85 86/86/86 85/85/85 
f 85/85/85 86/86/86 87/87/87 
f 86/86/86 86/86/86 87/87/87 
f 87/87/87 86/86/86 88/88/88 
f 86/86/86 86/86/86 88/88/88 
f 88/88/88 86/86/86 89/89/89 
f 86/86/86 90/90/90 89/89/89 
f 89/89/89 90/90/90 91/91/91 
f 90/90/90 92/92/92 91/91/91 
f 91/91/91 92/92/92 92/92/92 
f 92/92/92 93/93/93 92/92/92 
f 92/92/92 93/93/93 93/93/93 
f 93/93/93 94/94/94 93/93/93 
f 93/93/93 94/94/94 95/95/95 
f 94/94/94 96/96/96 95/95/95 
f 95/95/95 96/96/96 97/97/97 
f 96/96/96 98/98/98 97/97/97 
f 97/97/97 98/98/98 98/98/98 
f 98/98/98 96/96/96 98/98/98 
f 98/98/98 96/96/96 96/96/96 
f 96/96/96 94/94/94 96/96/96 
f 96/96/96 94/94/94 99/99/99 
f 94/94/94 94/94/94 99/99/99 
f 99/99/99 94/94/94 100/100/100 
f 94/94/94 94/94/94 100/100/100 
f 100/100/100 94/94/94 101/101/101 
f 94/94/94 94/94/94 101/101/101 
f 101/101/101 94/94/94 102/102/102 
f 94/94/94 103/103/103 102/102/102 
f 102/102/102 103/103/103 103/103/103 
f 103/103/103 104/104/104 103/103/103 
f 103/103/103 104/104/104 104/104/104 
f 104/104/104 95/95/95 104/104/104 
f 104/104/104 95/95/95 97/97/97 

